<?xml version="1.0" encoding="utf-8"?>
<!-- Generator: Adobe Illustrator 19.1.1, SVG Export Plug-In . SVG Version: 6.00 Build 0)  -->
<svg version="1.1" id="Final" xmlns="http://www.w3.org/2000/svg" xmlns:xlink="http://www.w3.org/1999/xlink" x="0px" y="0px"
	 viewBox="0 0 5000 5000" style="enable-background:new 0 0 5000 5000;" xml:space="preserve">
<style type="text/css">
	.st0{fill:#009416;}
</style>
<path class="st0" d="M4157.1,2814.2c0-507.3-296.2-709.3-296.2-812.9c0-60.5,226.7-180.3,226.7-512.8
	c0-390.1-182.1-692.7-466.9-692.7c0-134.3-234.9-576.5-563.5-576.5c-340.7,0-327.1,77.7-401.2,77.7s-60.5-77.7-401.2-77.7
	c-328.6,0-563.5,442.2-563.5,576.5c-284.8,0-466.9,302.6-466.9,692.7c0,332.5,226.7,452.4,226.7,512.8
	c0,103.6-296.2,305.6-296.2,812.9c0,444.8,138.6,442.3,138.6,544.1c0,60.5-101.6,142.5-101.6,415.4
	c0,1035.6,220.3,1083.1,1464,1083.1s1464-47.5,1464-1083.1c0-272.9-101.6-354.9-101.6-415.4
	C4018.5,3256.5,4157.1,3259,4157.1,2814.2z M1701.6,1972.1c0-60.5-263.4-151.1-263.4-483.7c0-259.3,97.2-474.6,273.2-474.6
	c89.6,0,167.3-51.9,167.3-186.2s189.2-418.9,457.8-418.9s245.5,120.9,319.6,120.9s51-120.9,319.6-120.9s457.8,284.6,457.8,418.9
	s77.7,186.2,167.3,186.2c176,0,273.2,215.2,273.2,474.6c0,332.5-263.4,423.2-263.4,483.7c0,84,218.9,251.9,301.7,583h-807v-112.3
	c0,0,138.2,0,276.4,0c138.2,0,310.9,25.9,310.9-86.4c0-112.3-181.4-259.1-181.4-397.3s241.8-215.9,241.8-457.8
	s-51.8-397.3-215.9-397.3s-228.9-103.6-228.9-228.9S3243.3,560,2992.8,560c-245.2,0-266.9,215.1-332.5,224.2
	c-65.6-9.1-87.4-224.2-332.5-224.2c-250.5,0-315.2,190-315.2,315.2s-64.8,228.9-228.9,228.9s-215.9,155.5-215.9,397.3
	s241.8,319.6,241.8,457.8s-181.4,285-181.4,397.3c0,112.3,172.7,86.4,310.9,86.4s276.4,0,276.4,0v112.3h-815.6
	C1482.7,2224.1,1701.6,2056.2,1701.6,1972.1z M3804.7,3358.3c0,60.5,101.6,142.5,101.6,415.4c0,259.3-620.5,500.1-1250.3,500.1
	s-1250.3-240.8-1250.3-500.1c0-272.9,101.6-354.9,101.6-415.4c0-101.9-138.6-99.3-138.6-544.1c0-45.4,2.7-88.5,7.6-129.6h839.3
	v129.6c0,0-414.6,0-587.3,0s-164.1,51.8-164.1,164.1c0,112.3,190,310.9,190,405.9c0,95-155.5,51.8-155.5,293.7
	c0,240.6,573,464.2,1157.3,466.3c0,0,0,0,0,0.1c1.4,0,2.9,0,4.3,0c1.4,0,2.9,0,4.3,0c0,0,0,0,0-0.1
	c584.3-2.2,1157.3-225.7,1157.3-466.3c0-241.8-155.5-198.6-155.5-293.7c0-95,190-293.7,190-405.9c0-112.3,8.6-164.1-164.1-164.1
	s-587.3,0-587.3,0v-129.6h830.6c4.8,41.1,7.6,84.2,7.6,129.6C3943.3,3259,3804.7,3256.5,3804.7,3358.3z"/>
</svg>
